<svg xmlns="http://www.w3.org/2000/svg" width="106.386" height="103.849" viewBox="0 0 106.386 103.849">
  <g id="Group_1586" data-name="Group 1586" transform="translate(-28.176 -23.549)">
    <path id="Path_141" data-name="Path 141" d="M28.974,38.867S57.125,22.394,83.082,25.125,131.353,39.7,131.353,39.7l-3.377,31.93a54.138,54.138,0,0,1-7.484,13.661c-5.736,7.43-39.232,38.656-40.373,37.975S42.62,90.07,42.62,90.07Z" transform="translate(0 1.354)" fill="#fff"/>
    <g id="Group_66" data-name="Group 66" transform="translate(28.974 24.347)">
      <g id="Group_62" data-name="Group 62" transform="translate(26.654 81.067)">
        <path id="Path_142" data-name="Path 142" d="M84.415,45.623l-5.307-.035A116.679,116.679,0,0,1,60.782,61.605,205.31,205.31,0,0,1,41.551,45.345l-5.686-.039a201.556,201.556,0,0,0,22.581,19.51l2.3,1.675,2.325-1.64A120.59,120.59,0,0,0,84.415,45.623Z" transform="translate(-35.865 -45.306)" fill="#fff"/>
        <path id="Path_142_-_Outline" data-name="Path 142 - Outline" d="M35.865,44.508h.005l5.686.039a.8.8,0,0,1,.549.224A207.9,207.9,0,0,0,60.792,60.62,116.329,116.329,0,0,0,78.523,45.045a.8.8,0,0,1,.591-.255l5.307.035a.8.8,0,0,1,.6,1.324A121.636,121.636,0,0,1,63.528,65.5L61.2,67.143a.8.8,0,0,1-.931-.007l-2.3-1.675a200.886,200.886,0,0,1-22.68-19.6.8.8,0,0,1,.57-1.358Zm5.362,1.633L37.8,46.118A200.955,200.955,0,0,0,58.916,64.17l1.835,1.338,1.857-1.31A120.091,120.091,0,0,0,82.65,46.41l-3.2-.021A117.974,117.974,0,0,1,61.242,62.258a.8.8,0,0,1-.93-.007A208.28,208.28,0,0,1,41.227,46.141Z" transform="translate(-35.865 -45.306)" fill="#fff"/>
      </g>
      <g id="Group_65" data-name="Group 65">
        <path id="Path_143" data-name="Path 143" d="M133.763,39.637,131.5,38.368c-16.62-9.3-33.763-14.021-50.948-14.021v3.972l0-3.972A94.474,94.474,0,0,0,44.426,31.6a71.212,71.212,0,0,0-13.808,7.411l-1.644,1.215.035,2.046c.012.758.391,16.357,8.262,35.585A17.062,17.062,0,0,1,40.4,74.97C33.236,56.768,32.981,42.2,32.981,42.2S51.74,28.323,80.545,28.319c14.234,0,30.92,3.388,49.014,13.514a102.64,102.64,0,0,1-5.724,22.67,1.686,1.686,0,0,1,1.16.739,2.351,2.351,0,0,1-.147,2.336,3.735,3.735,0,0,0-.325.882c-.05.615.182,1.191.963,2.746,6.726-16.234,7.976-28.472,8.026-28.986Z" transform="translate(-28.974 -24.347)" fill="#fff"/>
        <path id="Path_143_-_Outline" data-name="Path 143 - Outline" d="M80.544,23.549h0c17.322,0,34.594,4.752,51.338,14.123l2.267,1.269a.8.8,0,0,1,.4.774l-.251,2.584c-.051.519-1.319,12.89-8.083,29.214a.8.8,0,0,1-1.451.053c-.8-1.587-1.115-2.318-1.045-3.17v-.008a3.815,3.815,0,0,1,.393-1.138c.294-.651.48-1.145.2-1.574a.883.883,0,0,0-.621-.384.8.8,0,0,1-.619-1.06,106.773,106.773,0,0,0,5.62-21.959c-15.757-8.728-31.957-13.154-48.159-13.154a89.651,89.651,0,0,0-34.223,6.857A70.984,70.984,0,0,0,33.794,42.6a80.244,80.244,0,0,0,1,9.067,113.52,113.52,0,0,0,6.344,23.01.8.8,0,0,1-.27.936,16.438,16.438,0,0,0-2.978,2.736.8.8,0,0,1-1.363-.2c-7.983-19.5-8.311-35.215-8.321-35.875l-.035-2.045a.8.8,0,0,1,.324-.656l1.644-1.215a72,72,0,0,1,13.975-7.505A95.28,95.28,0,0,1,80.544,23.549Zm52.373,16.53-1.811-1.014c-16.245-9.092-32.982-13.772-49.76-13.916v2.376c16.37.145,32.717,4.723,48.6,13.613a.8.8,0,0,1,.4.774c-.01.1-.243,2.449-1.072,6.459a119.371,119.371,0,0,1-4.429,15.663,2.462,2.462,0,0,1,.812.774,3.077,3.077,0,0,1-.088,3.1l0,.005a4.323,4.323,0,0,0-.256.631,1.613,1.613,0,0,0,.123.655c6.069-15.253,7.229-26.564,7.277-27.055ZM79.749,27.525l0-2.375a93.705,93.705,0,0,0-35.013,7.183,70.26,70.26,0,0,0-13.641,7.316l-1.314.971.028,1.635A78.01,78.01,0,0,0,30.98,53a115.673,115.673,0,0,0,6.553,23.367,19.894,19.894,0,0,1,1.9-1.67,115.137,115.137,0,0,1-6.22-22.812,74.6,74.6,0,0,1-1.033-9.674.8.8,0,0,1,.324-.656,67.871,67.871,0,0,1,13.147-7.032,90.662,90.662,0,0,1,34.1-7Z" transform="translate(-28.974 -24.347)" fill="#fff"/>
        <path id="Path_144" data-name="Path 144" d="M43.381,26.241l-.4,1.215-1.28.008,1.033.758L42.34,29.44l1.04-.747.986.712a2.165,2.165,0,0,1-2.6.259,2.4,2.4,0,0,0,1.466.746,1.041,1.041,0,0,0,.209,1.857v.425h.716v-.425a1.043,1.043,0,0,0,.05-1.942,2.385,2.385,0,0,0-.692-4.669,2.362,2.362,0,0,0-1.048.244,2.245,2.245,0,0,1,.429-.043,2.108,2.108,0,0,1,2.069,1.605l-1.184-.008Zm1.6,1.28a2.279,2.279,0,0,1,.039.4,2.022,2.022,0,0,1-.623,1.458l-.367-1.156Z" transform="translate(7.517 -20.59)" fill="#fff"/>
        <path id="Path_144_-_Outline" data-name="Path 144 - Outline" d="M43.516,24.859a3.186,3.186,0,0,1,1.973,5.687,1.839,1.839,0,0,1-.533,2.176.8.8,0,0,1-.8.77h-.716a.8.8,0,0,1-.8-.77,1.84,1.84,0,0,1-.635-1.876,3.206,3.206,0,0,1-.825-.636.8.8,0,0,1,.5-1.339l.111-.345-.569-.418a.8.8,0,0,1,.468-1.442l.533,0a.8.8,0,0,1-.112-1.477A3.139,3.139,0,0,1,43.516,24.859Zm.284,6.695a.8.8,0,0,1,.084-.036.241.241,0,0,0,.164-.229.247.247,0,0,0-.151-.228A.8.8,0,0,1,43.776,31a.8.8,0,0,1-.112.086.237.237,0,0,0-.112.206.241.241,0,0,0,.164.229A.8.8,0,0,1,43.8,31.553Z" transform="translate(7.517 -20.59)" fill="#fff"/>
        <path id="Path_145" data-name="Path 145" d="M39.306,37.315l5.146,5.9,22.591-.126L43.071,45.222Z" transform="translate(0.658 12.845)" fill="#fff"/>
        <path id="Path_145_-_Outline" data-name="Path 145 - Outline" d="M39.306,36.517a.8.8,0,0,1,.6.274l4.905,5.623,22.226-.123a.8.8,0,0,1,.075,1.594L43.142,46.018a.8.8,0,0,1-.792-.452l-3.765-7.907a.8.8,0,0,1,.72-1.142Zm5.146,7.5a.8.8,0,0,1-.6-.274l-1.323-1.517,1.027,2.156,4.316-.384-3.414.019Z" transform="translate(0.658 12.845)" fill="#fff"/>
        <g id="Group_64" data-name="Group 64" transform="translate(40.779 37.406)">
          <g id="Group_63" data-name="Group 63">
            <path id="Path_146" data-name="Path 146" d="M73.845,34.974c-4.487-1.064-14.276-1.284-19.266-.437s-15.062,6.838-15.062,6.838l3.466.062s8-4.17,9.558-4.831a20.1,20.1,0,0,1,6.432-1.129c3.009-.093,5.96,0,7.09,0s1.725-.031,1.725.692c0,1.315-.19,3.543-.19,3.543l-7.716,1.226a118.913,118.913,0,0,0,14.779-.661c6.869-.847,11.1-1.787,11.1-1.787S78.285,36.03,73.845,34.974Zm2.321,3.265a35.331,35.331,0,0,1-7.279,1.253l.19-3.64a28.6,28.6,0,0,1,5.519.882C75.984,37.078,77.422,37.8,76.165,38.238Z" transform="translate(-39.517 -34.018)" fill="#fff"/>
            <path id="Path_146_-_Outline" data-name="Path 146 - Outline" d="M62.544,33.219h0a56.731,56.731,0,0,1,11.484.978c4.423,1.052,11.911,3.51,11.986,3.534a.8.8,0,0,1-.076,1.538c-.043.009-4.352.958-11.18,1.8a113.585,113.585,0,0,1-12.927.685c-1.211,0-1.938-.017-1.969-.017a.8.8,0,0,1-.107-1.587l7.095-1.127c.053-.711.13-1.886.137-2.727-.2-.02-.5-.02-.669-.02h-.257c-.3,0-.71-.006-1.229-.014-.808-.012-1.813-.027-2.936-.027-1.06,0-2.008.013-2.9.041a19.289,19.289,0,0,0-6.144,1.066c-1.509.642-9.421,4.763-9.5,4.8a.8.8,0,0,1-.383.09L39.5,42.174a.8.8,0,0,1-.394-1.484c.416-.248,10.258-6.077,15.336-6.939A51.845,51.845,0,0,1,62.544,33.219Zm6.36,1.853q-.426-.036-.868-.068a1.252,1.252,0,0,1,.371.411A.8.8,0,0,1,68.9,35.072ZM82.542,38.3c-1.861-.583-4.315-1.332-6.516-1.935.113.048.221.1.321.146.263.131,1.064.529,1.1,1.276.015.313-.1.886-1.016,1.208a16.22,16.22,0,0,1-1.848.49C77.917,39.07,80.639,38.634,82.542,38.3ZM42.794,40.635c.98-.51,5.49-2.852,8-4.088a83.117,83.117,0,0,0-8.35,4.082Zm32.315-2.916c-.2-.071-.436-.143-.706-.21a31.215,31.215,0,0,0-4.572-.8l-.1,1.907A39,39,0,0,0,75.109,37.719Z" transform="translate(-39.517 -34.018)" fill="#fff"/>
            <path id="Path_147" data-name="Path 147" d="M40.645,37.64l4.139-2.259a3.754,3.754,0,0,1,1.6,2.162Z" transform="translate(-36.282 -30.108)" fill="#fff"/>
            <path id="Path_147_-_Outline" data-name="Path 147 - Outline" d="M40.645,38.438a.8.8,0,0,1-.382-1.5L44.4,34.68a.8.8,0,0,1,.788.013,4.573,4.573,0,0,1,1.973,2.669.8.8,0,0,1-.764.979l-5.74.1Zm4.072-2.111-.843.46,1.259-.021A3.277,3.277,0,0,0,44.717,36.327Z" transform="translate(-36.282 -30.108)" fill="#fff"/>
          </g>
        </g>
        <path id="Path_148" data-name="Path 148" d="M123.828,45.042,82.639,30.511c-.348-1.23-.6-2.1-.731-2.541l-3.632-.634.143.553H75.092l.143-.553-3.632.634c-.139.468-.422,1.443-.812,2.82l-40.4,14.253a.322.322,0,0,0,.1.627.333.333,0,0,0,.108-.015l39.971-14.1-.832,2.943L30.588,51.962a.322.322,0,1,0,.263.588L69.519,35.307c-.232.835-.483,1.725-.747,2.665L30.867,58.735a.325.325,0,0,0,.313.569L68.528,38.842c-.224.8-.46,1.64-.7,2.5L33.141,63.562l.309.569,34.115-21.85-.646,2.309-25.892,19.4c.716-.321,1.5-.627,2.282-.9L66.633,45.611l-.65,2.328L51.757,60.092a9.743,9.743,0,0,1,1.478-.41L65.674,49.057l-.406,1.45-9.31,8.985c.313.015.6.035.874.058l8.092-7.813-.395,1.42L58.553,59.7a1.577,1.577,0,0,1,.352-.07c.031,0,.22-.012.607-.019l4.634-5.071-.337,1.2L60.653,59.6c.259,0,.534.008.824.015l1.9-2.328-.356,1.273-.785,1.071c.658.012,1.671.027,2.943.043a1.409,1.409,0,0,1,.4-.356c.418-.251,10.358-6.138,15.549-7.02a50.248,50.248,0,0,1,7.469-.534l-.271-.971,1,.967h0c.313,0,.623,0,.936,0l-2.282-2.2-.364-1.307L91.759,51.8c.352.012.7.023,1.04.039l-5.5-4.7-.615-2.2L96.2,52.059c.429.039.847.081,1.249.128L86.4,43.917l-.611-2.189,18.674,11.963c.731.205,1.474.422,2.2.638L85.528,40.791c-.232-.832-.456-1.636-.673-2.406l32.038,17.549a9.151,9.151,0,0,1,1.2-.081L84.611,37.511c-.255-.905-.5-1.764-.719-2.568l39.48,17.607a.313.313,0,0,0,.425-.162.321.321,0,0,0-.162-.425L83.664,34.135c-.3-1.071-.572-2.031-.808-2.862l40.76,14.381a.325.325,0,0,0,.1.015.322.322,0,0,0,.108-.627ZM77.235,49.08a2.673,2.673,0,0,1-.48,1.741,2.673,2.673,0,0,1-.48-1.741V35.492a3.421,3.421,0,0,1,.48-1.918,3.421,3.421,0,0,1,.48,1.918Z" transform="translate(-25.521 -15.778)" fill="#fff"/>
        <path id="Path_148_-_Outline" data-name="Path 148 - Outline" d="M75.235,26.537a.8.8,0,0,1,.76.553h1.521a.8.8,0,0,1,.9-.541l3.632.634a.8.8,0,0,1,.627.556c.117.389.331,1.13.622,2.156l40.8,14.393a1.119,1.119,0,0,1,.686,1.438,1.13,1.13,0,0,1-1.414.685l-.013,0L84.043,32.538l.288,1.02L123.96,51.233a1.12,1.12,0,1,1-.913,2.046L85.118,36.364l.171.608,33.19,18.181a.8.8,0,0,1-.377,1.5,8.35,8.35,0,0,0-1.1.073.8.8,0,0,1-.5-.09L86.135,40l.08.286,20.878,13.373a.8.8,0,0,1-.66,1.437c-.766-.23-1.5-.443-2.183-.634a.8.8,0,0,1-.215-.1L87.769,43.943l10.154,7.6a.8.8,0,0,1-.57,1.432c-.39-.045-.8-.087-1.229-.126a.8.8,0,0,1-.407-.156l-5.532-4.143,3.133,2.677a.8.8,0,0,1-.554,1.4c-.333-.015-.664-.026-1.031-.038a.8.8,0,0,1-.492-.191l-.284-.243a.8.8,0,0,1-.7.4c-.308,0-.608,0-.926,0a.813.813,0,0,1-.363-.086.8.8,0,0,1-.361.09,49.738,49.738,0,0,0-7.343.523c-5.121.87-15.171,6.857-15.271,6.917l-.008,0a.619.619,0,0,0-.172.157.8.8,0,0,1-.64.308c-1.492-.018-2.488-.034-2.948-.043a.8.8,0,0,1-.379-.1.8.8,0,0,1-.386.088c-.27-.007-.525-.011-.773-.015h-.042a.8.8,0,0,1-.557-.238.8.8,0,0,1-.556.242c-.355.007-.51.014-.547.016l-.025,0a.824.824,0,0,0-.174.038.8.8,0,0,1-1.025-.7l-.371.358a.8.8,0,0,1-.623.221c-.262-.022-.546-.041-.845-.056a.8.8,0,0,1-.515-1.372l.345-.333-1.995,1.7a.8.8,0,0,1-.367.177,9,9,0,0,0-1.357.377.8.8,0,0,1-.791-1.357L64.02,48.566,43.789,63.725a.8.8,0,0,1-.215.115c-.8.28-1.548.575-2.219.876a.8.8,0,0,1-.806-1.367L66.224,44.113l.009-.031L33.881,64.8a.8.8,0,0,1-1.132-.291l-.309-.569a.8.8,0,0,1,.271-1.054L67.141,40.837l.107-.383L31.564,60l-.005,0a1.128,1.128,0,0,1-1.517-.443l-.006-.01a1.128,1.128,0,0,1,.446-1.518l37.612-20.6.2-.7L31.176,53.279a1.116,1.116,0,0,1-1.482-.563l-.006-.014a1.131,1.131,0,0,1,.571-1.467L69.08,33.918l.311-1.1L30.873,46.406l-.013,0a1.123,1.123,0,0,1-1.371-1.549,1.11,1.11,0,0,1,.643-.573l40-14.115c.3-1.042.554-1.933.7-2.432a.8.8,0,0,1,.628-.559l3.632-.634A.8.8,0,0,1,75.235,26.537Zm3.183,2.15H75.092a.8.8,0,0,1-.689-.4l-2.173.38c-.172.588-.41,1.418-.67,2.336a.8.8,0,0,1-.206.35.8.8,0,0,1-.006.412l-.832,2.944a.8.8,0,0,1-.23.372.8.8,0,0,1,0,.436q-.217.781-.454,1.624l-.293,1.043a.8.8,0,0,1-.257.4.8.8,0,0,1,.013.472q-.148.531-.3,1.079-.2.7-.4,1.423a.8.8,0,0,1-.291.425.8.8,0,0,1,.028.512L67.688,44.8a.8.8,0,0,1-.29.424l-.046.035a.8.8,0,0,1,.05.562l-.65,2.328a.8.8,0,0,1-.25.392l-.135.115a.8.8,0,0,1,.075.611l-.406,1.45a.8.8,0,0,1-.214.359l-.229.221a.8.8,0,0,1,.1.648l-.395,1.42a.8.8,0,0,1-.18.325l-.333.364a.8.8,0,0,1,.129.693l-.337,1.2a.8.8,0,0,1-.151.29l-.437.536a.8.8,0,0,1,.155.725l-.356,1.273a.8.8,0,0,1-.028.082l1.079.014a2.109,2.109,0,0,1,.33-.241c.137-.082,2.735-1.63,6.03-3.3,4.255-2.155,7.55-3.441,9.791-3.821a47.136,47.136,0,0,1,6.556-.529.8.8,0,0,1,.106-.623l-.229-.221a.8.8,0,0,1-.215-.361l-.364-1.307a.8.8,0,0,1,.075-.607l-.137-.117a.8.8,0,0,1-.25-.393l-.615-2.2a.8.8,0,0,1,.05-.562l-.046-.034a.8.8,0,0,1-.29-.424l-.611-2.189a.8.8,0,0,1,.028-.511.8.8,0,0,1-.291-.425l-.053-.189c-.213-.764-.42-1.5-.62-2.215a.8.8,0,0,1,.014-.477.8.8,0,0,1-.257-.4c-.263-.933-.51-1.816-.72-2.571a.8.8,0,0,1,0-.434.8.8,0,0,1-.229-.372c-.3-1.071-.572-2.03-.808-2.861a.8.8,0,0,1-.007-.409.8.8,0,0,1-.21-.353c-.248-.877-.448-1.575-.588-2.057l-2.174-.38a.8.8,0,0,1-.689.4Zm-1.663,4.089a.8.8,0,0,1,.668.362,4.131,4.131,0,0,1,.61,2.355V49.08a3.487,3.487,0,0,1-.626,2.2.8.8,0,0,1-1.3,0,3.487,3.487,0,0,1-.626-2.2V35.492a4.131,4.131,0,0,1,.61-2.355A.8.8,0,0,1,76.755,32.776Z" transform="translate(-25.521 -15.778)" fill="#fff"/>
        <path id="Path_149" data-name="Path 149" d="M33.126,49.576c.043.824.116,2.251.135,2.793l1.245.035c-.135-1.307-.344-3.705-.344-3.705l3.763,1.068a12.976,12.976,0,0,0-2.116-1.273c-1-.5-2.073-.893-2.073-.893a30.92,30.92,0,0,1,8.9-2.352,3.275,3.275,0,0,0-.251,1.632s2.487-4.483,6.088-5.461c4.092-1.114,9.225-1.129,13.24,5.148a8.882,8.882,0,0,0-1.632-3.829L93.024,40.1a17.01,17.01,0,0,1,2.932-1.253,11.579,11.579,0,0,0-4.123,4.769,7.782,7.782,0,0,0-.63,2.951s2.545-6.5,8.943-7.345S108.8,41.2,108.8,41.2a8.44,8.44,0,0,0-4.046-3.106,8.175,8.175,0,0,1,2.541.8s5.179-.375,5.694-.375.9,0,1.18.375,1.176,1.458.75,1.458H112.9a1.064,1.064,0,0,0-.847.615c-.143.282-.375.7.658,1.079a13.376,13.376,0,0,1,4,2.827,3.689,3.689,0,0,1,1.176,2.4c0,.472.422.708.611-.236a7.851,7.851,0,0,0-.8-5.175c-1.176-2.305-1.6-3.156-1.5-4.286s1.319-2.445.375-2.445a12.843,12.843,0,0,0-3.527.139A88.913,88.913,0,0,1,100.9,37.481c-4.846.472-16.941,1.694-24.24,1.6s-16.377-.19-18.353-.236-2.777,0-2.777,0a23,23,0,0,1,2.684,2.023s-2.495-1.93-4.522-2.069-5.411-.708-9.457,3.671a8.2,8.2,0,0,1,1.315-1.787,46.657,46.657,0,0,0-8.1,2.727,19.144,19.144,0,0,0-6.069,4.661s.75.093,1.033.139S33.079,48.636,33.126,49.576Z" transform="translate(-22.059 6.42)" fill="#fff"/>
        <path id="Path_149_-_Outline" data-name="Path 149 - Outline" d="M34.506,53.2h-.022l-1.245-.035a.8.8,0,0,1-.776-.77c-.02-.55-.1-2.056-.135-2.78a1.344,1.344,0,0,0-.146-.635c-.262-.039-.718-.1-.9-.118a.8.8,0,0,1-.538-1.275A19.983,19.983,0,0,1,37.091,42.7a46.78,46.78,0,0,1,8.273-2.792.8.8,0,0,1,.475.033A9.616,9.616,0,0,1,51.85,37.9c.571,0,1.082.041,1.533.077l.364.028A5.583,5.583,0,0,1,55,38.25a.8.8,0,0,1,.485-.2c.015,0,.388-.022,1.225-.022.484,0,1.028.007,1.617.021,1.186.028,4.972.073,9.356.125,2.854.034,6.089.072,8.989.111.258,0,.528,0,.8,0,6.958,0,17.537-1.034,22.621-1.531l.728-.071A88.388,88.388,0,0,0,112.8,34.507a6.293,6.293,0,0,1,1.9-.231c.384,0,.767.016,1.105.031.28.012.544.023.759.023a1.108,1.108,0,0,1,.988.484c.35.544.074,1.152-.192,1.74a3.825,3.825,0,0,0-.375,1.084c-.075.88.257,1.577,1.42,3.857a8.638,8.638,0,0,1,.872,5.7c-.225,1.122-.823,1.289-1.159,1.289a1.108,1.108,0,0,1-1.033-1.211,2.947,2.947,0,0,0-.967-1.859,12.659,12.659,0,0,0-3.688-2.616,1.884,1.884,0,0,1-1.225-.991,1.405,1.405,0,0,1,.123-1.187l0-.009a1.841,1.841,0,0,1,1.561-1.055h.772l-.01-.013-.128-.167a.128.128,0,0,0-.02-.023,2.1,2.1,0,0,0-.522-.034c-.291,0-2.564.154-4.47.29a8.631,8.631,0,0,1,.95,1.156.806.806,0,0,1-.2,1.1.79.79,0,0,1-1.087-.157,4.436,4.436,0,0,0-1.282-.912,9.775,9.775,0,0,0-4.46-.926,16.81,16.81,0,0,0-2.193.152,9.818,9.818,0,0,0-6.329,3.67,13.1,13.1,0,0,0-1.976,3.176.8.8,0,0,1-1.541-.264,8.579,8.579,0,0,1,.691-3.285,10,10,0,0,1,1.411-2.368L61.479,43.426A10.172,10.172,0,0,1,62.5,46.454.8.8,0,0,1,61.037,47c-2.3-3.6-5.144-5.346-8.694-5.346a13.881,13.881,0,0,0-3.664.538c-3.239.88-5.576,5.037-5.6,5.078A.8.8,0,0,1,41.592,47a3.324,3.324,0,0,1-.012-.855,28.98,28.98,0,0,0-5.72,1.485c.1.048.2.1.307.149a13.719,13.719,0,0,1,2.259,1.364.8.8,0,0,1-.717,1.391l-2.648-.751c.072.8.167,1.832.24,2.539a.8.8,0,0,1-.794.881Zm9.054-11.163a35.784,35.784,0,0,0-5.746,2.084,21.768,21.768,0,0,0-3.862,2.521,29.97,29.97,0,0,1,8.642-2.194.8.8,0,0,1,.418.1,15.9,15.9,0,0,1,1.128-1.282.8.8,0,0,1-.605-1.179Zm69.269-.806c.042.019.093.04.155.062a13.987,13.987,0,0,1,4.32,3.039,7.277,7.277,0,0,1,.508.618,7.61,7.61,0,0,0-.822-2.73c-1.207-2.366-1.706-3.345-1.589-4.717a4.969,4.969,0,0,1,.506-1.6l-.163-.007c-.338-.015-.687-.03-1.036-.03a4.9,4.9,0,0,0-1.421.156c-.763.242-3.828.947-7.2,1.53a7.739,7.739,0,0,1,1.387.521c1.091-.079,5.04-.361,5.522-.361a2.005,2.005,0,0,1,1.818.693l.116.151c.6.782,1.126,1.458.816,2.091a.9.9,0,0,1-.819.5h-2A.4.4,0,0,0,112.83,41.233Zm-54.8.414a11.544,11.544,0,0,1,1.268.915.8.8,0,0,1,.715-.62L92.8,39.317c.144-.075.379-.2.665-.334-5.151.451-11.351.9-15.989.9-.282,0-.559,0-.824-.005-2.9-.038-6.134-.077-8.988-.111-4.389-.052-8.179-.1-9.374-.125L58,39.638c.257.206.514.422.753.642a.8.8,0,0,1-.722,1.367Zm-5.687-1.592a10.6,10.6,0,0,1,5.175,1.293A9.315,9.315,0,0,0,53.636,39.6l-.38-.029c-.421-.034-.9-.072-1.406-.072a8.135,8.135,0,0,0-5.1,1.757,7.249,7.249,0,0,1,1.505-.6A15.445,15.445,0,0,1,52.343,40.054Zm44.395-1.369a.8.8,0,0,1-.361.84c-.008,0-.254.161-.626.45a10.788,10.788,0,0,1,4.289-1.545,18.41,18.41,0,0,1,2.4-.165,14.528,14.528,0,0,1,1.56.081.8.8,0,0,1-.023-.426l.005-.022c-1.03.153-2.051.284-3.008.378l-.727.071C99.263,38.443,98.07,38.56,96.738,38.685Z" transform="translate(-22.059 6.42)" fill="#fff"/>
      </g>
    </g>
    <g id="Group_68" data-name="Group 68" transform="translate(30.157 83.451)">
      <g id="Group_67" data-name="Group 67" transform="translate(2.016 7.083)">
        <path id="Path_150" data-name="Path 150" d="M32.481,40.661h9a4.9,4.9,0,0,1,1.133.134,3.673,3.673,0,0,1,1.1.456,2.977,2.977,0,0,1,.852.8,2.147,2.147,0,0,1,.4,1.254v1.729a.8.8,0,0,1-.8.8H40.678a.8.8,0,0,1-.8-.8v-.4h-5.81v3.934h5.81V48.17a.8.8,0,0,1,.8-.8h3.489a.8.8,0,0,1,.8.8v1.713a2.134,2.134,0,0,1-.392,1.247l-.005.007a2.976,2.976,0,0,1-.851.8,3.563,3.563,0,0,1-1.1.453,4.9,4.9,0,0,1-1.129.137h-9a5.409,5.409,0,0,1-1.157-.123l-.009,0a3.771,3.771,0,0,1-1.085-.423,2.648,2.648,0,0,1-.862-.8l0-.005A2.267,2.267,0,0,1,29,49.883V43.3a2.267,2.267,0,0,1,.362-1.282,2.676,2.676,0,0,1,.861-.81l.012-.007a3.934,3.934,0,0,1,1.077-.415l.009,0A5.408,5.408,0,0,1,32.481,40.661Zm10.887,3.57V43.3a.543.543,0,0,0-.1-.326,1.366,1.366,0,0,0-.4-.369l0,0a2.078,2.078,0,0,0-.624-.255,3.293,3.293,0,0,0-.761-.09h-9a3.811,3.811,0,0,0-.811.085,2.347,2.347,0,0,0-.629.238,1.06,1.06,0,0,0-.348.323.7.7,0,0,0-.094.4v6.583a.708.708,0,0,0,.093.394,1.054,1.054,0,0,0,.347.321,2.2,2.2,0,0,0,.631.243,3.812,3.812,0,0,0,.811.085h9a3.306,3.306,0,0,0,.763-.094l.007,0a1.973,1.973,0,0,0,.615-.249l0,0a1.369,1.369,0,0,0,.4-.367.551.551,0,0,0,.1-.328v-.915H41.476v.389a.8.8,0,0,1-.8.8H33.271a.8.8,0,0,1-.8-.8V43.826a.8.8,0,0,1,.8-.8h7.407a.8.8,0,0,1,.8.8v.4Z" transform="translate(-29.801 -41.459)" fill="#fff"/>
        <path id="Path_151" data-name="Path 151" d="M50.278,52.523H46.561a.8.8,0,0,1-.66-.349l-.7-1.032h-6.38l-.7,1.03a.8.8,0,0,1-.661.35H33.723A.8.8,0,0,1,33.05,51.3L39.6,41.03a.8.8,0,0,1,.673-.369h3.473a.8.8,0,0,1,.674.37L50.951,51.3a.8.8,0,0,1-.674,1.227Zm-3.295-1.6h1.84l-5.517-8.669h-2.6l-5.53,8.669h1.857l.7-1.03a.8.8,0,0,1,.661-.35h7.225a.8.8,0,0,1,.66.349ZM44.22,48.755H39.827a.8.8,0,0,1-.671-1.231l2.174-3.373a.8.8,0,0,1,1.338-.006l2.22,3.373a.8.8,0,0,1-.667,1.237Zm-2.93-1.6h1.448l-.732-1.112Z" transform="translate(-18.553 -41.459)" fill="#fff"/>
        <path id="Path_152" data-name="Path 152" d="M53.639,52.523H48.784a.8.8,0,0,1-.476-.158L43.7,48.937H42.57v2.787a.8.8,0,0,1-.8.8H38.283a.8.8,0,0,1-.8-.8V45.737a.8.8,0,0,1,.8-.8h9.6v-.314h-9.6a.8.8,0,0,1-.8-.8V41.459a.8.8,0,0,1,.8-.8H50.444a2.182,2.182,0,0,1,.9.21l.005,0a3.427,3.427,0,0,1,.741.46,2.822,2.822,0,0,1,.586.651,1.645,1.645,0,0,1,.3.921v3.257a2.228,2.228,0,0,1-.451,1.386,2.937,2.937,0,0,1-1.016.846,4.291,4.291,0,0,1-.6.252l3.219,2.442a.8.8,0,0,1-.483,1.435Zm-4.59-1.6h2.216l-2.836-2.151a.8.8,0,0,1,.483-1.435,5.953,5.953,0,0,0,1.04-.1,2.94,2.94,0,0,0,.82-.269,1.332,1.332,0,0,0,.47-.384l.008-.011a.638.638,0,0,0,.125-.418V42.922a.3.3,0,0,0-.03-.053l-.012-.018a1.228,1.228,0,0,0-.259-.284,1.83,1.83,0,0,0-.394-.243.613.613,0,0,0-.236-.067H39.081v.77H48.37a1.169,1.169,0,0,1,.655.2.954.954,0,0,1,.456.8v1.512a1.012,1.012,0,0,1-1.112,1H39.081v4.391h1.892V48.139a.8.8,0,0,1,.8-.8h2.189a.8.8,0,0,1,.476.158Z" transform="translate(-5.476 -41.459)" fill="#fff"/>
        <path id="Path_153" data-name="Path 153" d="M44.035,40.661H56.641a.8.8,0,0,1,.8.8v2.367a.8.8,0,0,1-.8.8H54.773a4.172,4.172,0,0,1,.649.1,2.77,2.77,0,0,1,1,.463,2.542,2.542,0,0,1,.732.858l.007.014a2.774,2.774,0,0,1,.276,1.267v2.947a1.674,1.674,0,0,1-.291.912,2.871,2.871,0,0,1-.577.654l-.015.012a3.426,3.426,0,0,1-.728.455,2.219,2.219,0,0,1-.932.212H42.291a.8.8,0,0,1-.8-.8V49.357a.8.8,0,0,1,.8-.8h1.8a3.683,3.683,0,0,1-.768-.154,2.793,2.793,0,0,1-.9-.468,2.353,2.353,0,0,1-.682-.87,2.791,2.791,0,0,1-.252-1.217V42.921a1.646,1.646,0,0,1,.309-.928,3.214,3.214,0,0,1,.559-.633l.008-.007a3.126,3.126,0,0,1,.75-.481A2.187,2.187,0,0,1,44.035,40.661Zm11.807,1.6H44.035a.607.607,0,0,0-.25.066l-.005,0a1.507,1.507,0,0,0-.365.233,1.662,1.662,0,0,0-.284.318l-.007.01a.439.439,0,0,0-.035.06v2.9a1.246,1.246,0,0,0,.094.526l0,.01a.779.779,0,0,0,.219.291l.006,0a1.193,1.193,0,0,0,.392.2,2.125,2.125,0,0,0,.546.1h8.472a1.2,1.2,0,0,1,.662.194l.027.018a.947.947,0,0,1,.439.784V49.16a1.018,1.018,0,0,1-1.127,1H43.089v.77H54.9a.639.639,0,0,0,.265-.066l.005,0a1.817,1.817,0,0,0,.383-.242,1.273,1.273,0,0,0,.251-.283.487.487,0,0,0,.042-.077V47.33a1.245,1.245,0,0,0-.1-.537.943.943,0,0,0-.269-.318,1.167,1.167,0,0,0-.429-.195,2.692,2.692,0,0,0-.643-.074H46.074a1.01,1.01,0,0,1-1.108-1V44.023a.956.956,0,0,1,.435-.79,1.181,1.181,0,0,1,.673-.206h9.769Z" transform="translate(6.019 -41.459)" fill="#fff"/>
        <path id="Path_154" data-name="Path 154" d="M46.417,42.7h3.489a.8.8,0,0,1,.8.8v2.367a.8.8,0,0,1-.8.8H46.417a.8.8,0,0,1-.8-.8V43.5A.8.8,0,0,1,46.417,42.7Zm2.69,1.6H47.215v.77h1.892Z" transform="translate(17.852 -35.603)" fill="#fff"/>
        <path id="Path_155" data-name="Path 155" d="M60.423,52.523H47.736a.8.8,0,0,1-.8-.8V45.439a.8.8,0,0,1,.8-.8h9.633v-.016H47.736a.8.8,0,0,1-.8-.8V41.459a.8.8,0,0,1,.8-.8H59.928a2.186,2.186,0,0,1,.916.211,3.352,3.352,0,0,1,.741.459,2.749,2.749,0,0,1,.59.654,1.645,1.645,0,0,1,.3.92v2.6a4.586,4.586,0,0,1-.053.842,2.536,2.536,0,0,1,.307.344l0,.006a1.17,1.17,0,0,1,.238.685v2.9a1.674,1.674,0,0,1-.291.912,2.872,2.872,0,0,1-.577.654l-.008.007a3.352,3.352,0,0,1-.734.46A2.219,2.219,0,0,1,60.423,52.523Zm-11.888-1.6H60.423a.639.639,0,0,0,.265-.066l.005,0a1.728,1.728,0,0,0,.38-.239,1.276,1.276,0,0,0,.254-.286.486.486,0,0,0,.041-.077v-2.7l-.055-.055-.232-.217a1.616,1.616,0,0,1-.271-.3.8.8,0,0,1,.038-.937l0-.014a3.631,3.631,0,0,0,.022-.528V42.922a.3.3,0,0,0-.03-.053l-.012-.018a1.139,1.139,0,0,0-.252-.279l-.007-.005a1.73,1.73,0,0,0-.391-.241l-.005,0a.607.607,0,0,0-.25-.066H48.534v.77h9.32a1.188,1.188,0,0,1,.677.206l.02.014a.965.965,0,0,1,.415.775v1.218a1.01,1.01,0,0,1-1.112,1h-9.32Zm9.8-.77H51.225a.8.8,0,0,1-.8-.8V47.81a.8.8,0,0,1,.8-.8h7.109a1.153,1.153,0,0,1,.686.215.954.954,0,0,1,.422.78V49.16A1.019,1.019,0,0,1,58.334,50.156Z" transform="translate(21.635 -41.459)" fill="#fff"/>
        <path id="Path_156" data-name="Path 156" d="M51.88,40.661h3.783a.8.8,0,0,1,.529.2l5.782,5.112V41.459a.8.8,0,0,1,.8-.8h3.473a.8.8,0,0,1,.8.8V51.724a.8.8,0,0,1-.8.8H62.54a.8.8,0,0,1-.524-.2l-5.849-5.085v4.483a.8.8,0,0,1-.8.8H51.88a.8.8,0,0,1-.8-.8V41.459A.8.8,0,0,1,51.88,40.661Zm3.48,1.6H52.678v8.669H54.57V45.489a.8.8,0,0,1,1.322-.6l6.946,6.039h2.608V42.257H63.57v5.487a.8.8,0,0,1-1.327.6Z" transform="translate(33.519 -41.459)" fill="#fff"/>
      </g>
      <path id="Path_157" data-name="Path 157" d="M29.57,44.173a.8.8,0,0,1-.8-.8l.005-3.747a.8.8,0,0,1,.821-.8L131.648,41.7a.8.8,0,0,1-.016,1.6l-102.055.881Zm.8-3.724,0,2.12,57.755-.5Z" transform="translate(-28.447 -39.628)" fill="#fff"/>
      <path id="Path_158" data-name="Path 158" d="M131.335,44.232a.8.8,0,0,1,.8.8l-.005,3.747a.8.8,0,0,1-.821.8L29.257,46.71a.8.8,0,0,1,.016-1.6l102.055-.881Zm-.8,3.724,0-2.12-57.755.5Z" transform="translate(-29.28 -24.133)" fill="#fff"/>
    </g>
    <g id="Group_74" data-name="Group 74" transform="translate(28.974 24.347)">
      <g id="Group_70" data-name="Group 70" transform="translate(1.183 59.104)">
        <g id="Group_69" data-name="Group 69" transform="translate(2.016 7.083)">
          <path id="Path_159" data-name="Path 159" d="M30.029,42.461a1.863,1.863,0,0,1,.607-.569,3.12,3.12,0,0,1,.859-.329,4.587,4.587,0,0,1,.986-.1h9a4.083,4.083,0,0,1,.948.112,2.873,2.873,0,0,1,.863.356,2.159,2.159,0,0,1,.627.584,1.338,1.338,0,0,1,.248.789v1.729H40.678v-1.2H33.271v5.531h7.407V48.17h3.489v1.713a1.346,1.346,0,0,1-.248.789,2.158,2.158,0,0,1-.627.584,2.77,2.77,0,0,1-.863.352,4.093,4.093,0,0,1-.948.116h-9a4.588,4.588,0,0,1-.986-.1,3.007,3.007,0,0,1-.859-.333,1.852,1.852,0,0,1-.607-.565,1.474,1.474,0,0,1-.228-.839V43.3A1.474,1.474,0,0,1,30.029,42.461Z" transform="translate(-29.801 -41.459)" fill="#c82230"/>
          <path id="Path_160" data-name="Path 160" d="M50.278,51.724H46.561l-.94-1.381H38.4l-.936,1.381H33.723l6.548-10.265h3.473ZM44.22,47.957,42,44.584l-2.174,3.373Z" transform="translate(-18.553 -41.459)" fill="#c82230"/>
          <path id="Path_161" data-name="Path 161" d="M38.283,51.724V45.737H48.37c.209,0,.313-.066.313-.2V44.023c0-.043-.035-.089-.1-.131a.374.374,0,0,0-.213-.066H38.283V41.459H50.444a1.389,1.389,0,0,1,.569.139,2.627,2.627,0,0,1,.569.352,2.021,2.021,0,0,1,.425.472.867.867,0,0,1,.166.483v3.257a1.441,1.441,0,0,1-.29.905,2.138,2.138,0,0,1-.747.619,3.724,3.724,0,0,1-1.044.344,6.728,6.728,0,0,1-1.18.108l4.727,3.586H48.784l-4.823-3.586H41.772v3.586Z" transform="translate(-5.476 -41.459)" fill="#c82230"/>
          <path id="Path_162" data-name="Path 162" d="M56.641,43.826H46.074a.381.381,0,0,0-.22.066.17.17,0,0,0-.089.131v1.184c0,.135.1.2.309.2H54.4a3.494,3.494,0,0,1,.832.1,1.957,1.957,0,0,1,.716.329,1.74,1.74,0,0,1,.5.592,1.984,1.984,0,0,1,.19.905v2.947a.909.909,0,0,1-.166.483,2.07,2.07,0,0,1-.418.472,2.631,2.631,0,0,1-.561.352,1.426,1.426,0,0,1-.6.139H42.291V49.357H52.823c.217,0,.329-.07.329-.2V47.973c0-.043-.035-.085-.1-.132a.406.406,0,0,0-.228-.066h-8.49a2.94,2.94,0,0,1-.766-.131,1.993,1.993,0,0,1-.65-.336,1.563,1.563,0,0,1-.453-.584,2,2,0,0,1-.174-.874V42.921a.861.861,0,0,1,.174-.483,2.445,2.445,0,0,1,.425-.48,2.311,2.311,0,0,1,.561-.36,1.4,1.4,0,0,1,.584-.139H56.641Z" transform="translate(6.019 -41.459)" fill="#c82230"/>
          <path id="Path_163" data-name="Path 163" d="M46.417,43.5h3.489v2.367H46.417Z" transform="translate(17.852 -35.603)" fill="#c82230"/>
          <path id="Path_164" data-name="Path 164" d="M47.736,51.724V45.439H57.854q.313,0,.313-.2V44.023a.18.18,0,0,0-.089-.131.384.384,0,0,0-.224-.066H47.736V41.459H59.928a1.4,1.4,0,0,1,.584.139,2.536,2.536,0,0,1,.569.352,1.939,1.939,0,0,1,.425.472.867.867,0,0,1,.166.483v2.6a3.292,3.292,0,0,1-.05.739.711.711,0,0,1-.132.282l-.015.015a.949.949,0,0,0,.147.155l.24.224a1.786,1.786,0,0,1,.217.24.4.4,0,0,1,.089.22v2.9a.909.909,0,0,1-.166.483,2.07,2.07,0,0,1-.418.472,2.538,2.538,0,0,1-.561.352,1.426,1.426,0,0,1-.6.139Zm3.489-3.914v1.547h7.109c.2,0,.309-.07.309-.2V48.007a.164.164,0,0,0-.089-.132.354.354,0,0,0-.22-.066Z" transform="translate(21.635 -41.459)" fill="#111c83"/>
          <path id="Path_165" data-name="Path 165" d="M55.369,45.489v6.235H51.88V41.459h3.783l7.109,6.285V41.459h3.473V51.724H62.54Z" transform="translate(33.519 -41.459)" fill="#111c83"/>
        </g>
        <path id="Path_166" data-name="Path 166" d="M131.625,42.493,29.576,39.628l-.005,3.747Z" transform="translate(-28.447 -39.628)" fill="#111c83"/>
        <path id="Path_167" data-name="Path 167" d="M29.28,45.912l102.049,2.865.005-3.747Z" transform="translate(-29.28 -24.133)" fill="#c82230"/>
      </g>
      <path id="Path_168" data-name="Path 168" d="M84.415,45.623l-5.307-.035A116.679,116.679,0,0,1,60.782,61.605,205.31,205.31,0,0,1,41.551,45.345l-5.686-.039a201.556,201.556,0,0,0,22.581,19.51l2.3,1.675,2.325-1.64A120.59,120.59,0,0,0,84.415,45.623Z" transform="translate(-9.211 35.761)" fill="#c82230"/>
      <g id="Group_73" data-name="Group 73">
        <path id="Path_169" data-name="Path 169" d="M133.763,39.637,131.5,38.368c-16.62-9.3-33.763-14.021-50.948-14.021v3.972l0-3.972A94.474,94.474,0,0,0,44.426,31.6a71.212,71.212,0,0,0-13.808,7.411l-1.644,1.215.035,2.046c.012.758.391,16.357,8.262,35.585A17.062,17.062,0,0,1,40.4,74.97C33.236,56.768,32.981,42.2,32.981,42.2S51.74,28.323,80.545,28.319c14.234,0,30.92,3.388,49.014,13.514a102.64,102.64,0,0,1-5.724,22.67,1.686,1.686,0,0,1,1.16.739,2.351,2.351,0,0,1-.147,2.336,3.735,3.735,0,0,0-.325.882c-.05.615.182,1.191.963,2.746,6.726-16.234,7.976-28.472,8.026-28.986Z" transform="translate(-28.974 -24.347)" fill="#111c83"/>
        <path id="Path_170" data-name="Path 170" d="M43.381,26.241l-.4,1.215-1.28.008,1.033.758L42.34,29.44l1.04-.747.986.712a2.165,2.165,0,0,1-2.6.259,2.4,2.4,0,0,0,1.466.746,1.041,1.041,0,0,0,.209,1.857v.425h.716v-.425a1.043,1.043,0,0,0,.05-1.942,2.385,2.385,0,0,0-.692-4.669,2.362,2.362,0,0,0-1.048.244,2.245,2.245,0,0,1,.429-.043,2.108,2.108,0,0,1,2.069,1.605l-1.184-.008Zm1.6,1.28a2.279,2.279,0,0,1,.039.4,2.022,2.022,0,0,1-.623,1.458l-.367-1.156Z" transform="translate(7.517 -20.59)" fill="#111c83"/>
        <path id="Path_171" data-name="Path 171" d="M39.306,37.315l5.146,5.9,22.591-.126L43.071,45.222Z" transform="translate(0.658 12.845)" fill="#c82230"/>
        <g id="Group_72" data-name="Group 72" transform="translate(40.779 37.406)">
          <g id="Group_71" data-name="Group 71">
            <path id="Path_172" data-name="Path 172" d="M73.845,34.974c-4.487-1.064-14.276-1.284-19.266-.437s-15.062,6.838-15.062,6.838l3.466.062s8-4.17,9.558-4.831a20.1,20.1,0,0,1,6.432-1.129c3.009-.093,5.96,0,7.09,0s1.725-.031,1.725.692c0,1.315-.19,3.543-.19,3.543l-7.716,1.226a118.913,118.913,0,0,0,14.779-.661c6.869-.847,11.1-1.787,11.1-1.787S78.285,36.03,73.845,34.974Zm2.321,3.265a35.331,35.331,0,0,1-7.279,1.253l.19-3.64a28.6,28.6,0,0,1,5.519.882C75.984,37.078,77.422,37.8,76.165,38.238Z" transform="translate(-39.517 -34.018)" fill="#c82230"/>
            <path id="Path_173" data-name="Path 173" d="M40.645,37.64l4.139-2.259a3.754,3.754,0,0,1,1.6,2.162Z" transform="translate(-36.282 -30.108)" fill="#c82230"/>
          </g>
        </g>
        <path id="Path_174" data-name="Path 174" d="M123.828,45.042,82.639,30.511c-.348-1.23-.6-2.1-.731-2.541l-3.632-.634.143.553H75.092l.143-.553-3.632.634c-.139.468-.422,1.443-.812,2.82l-40.4,14.253a.322.322,0,0,0,.1.627.333.333,0,0,0,.108-.015l39.971-14.1-.832,2.943L30.588,51.962a.322.322,0,1,0,.263.588L69.519,35.307c-.232.835-.483,1.725-.747,2.665L30.867,58.735a.325.325,0,0,0,.313.569L68.528,38.842c-.224.8-.46,1.64-.7,2.5L33.141,63.562l.309.569,34.115-21.85-.646,2.309-25.892,19.4c.716-.321,1.5-.627,2.282-.9L66.633,45.611l-.65,2.328L51.757,60.092a9.743,9.743,0,0,1,1.478-.41L65.674,49.057l-.406,1.45-9.31,8.985c.313.015.6.035.874.058l8.092-7.813-.395,1.42L58.553,59.7a1.577,1.577,0,0,1,.352-.07c.031,0,.22-.012.607-.019l4.634-5.071-.337,1.2L60.653,59.6c.259,0,.534.008.824.015l1.9-2.328-.356,1.273-.785,1.071c.658.012,1.671.027,2.943.043a1.409,1.409,0,0,1,.4-.356c.418-.251,10.358-6.138,15.549-7.02a50.248,50.248,0,0,1,7.469-.534l-.271-.971,1,.967h0c.313,0,.623,0,.936,0l-2.282-2.2-.364-1.307L91.759,51.8c.352.012.7.023,1.04.039l-5.5-4.7-.615-2.2L96.2,52.059c.429.039.847.081,1.249.128L86.4,43.917l-.611-2.189,18.674,11.963c.731.205,1.474.422,2.2.638L85.528,40.791c-.232-.832-.456-1.636-.673-2.406l32.038,17.549a9.151,9.151,0,0,1,1.2-.081L84.611,37.511c-.255-.905-.5-1.764-.719-2.568l39.48,17.607a.313.313,0,0,0,.425-.162.321.321,0,0,0-.162-.425L83.664,34.135c-.3-1.071-.572-2.031-.808-2.862l40.76,14.381a.325.325,0,0,0,.1.015.322.322,0,0,0,.108-.627ZM77.235,49.08a2.673,2.673,0,0,1-.48,1.741,2.673,2.673,0,0,1-.48-1.741V35.492a3.421,3.421,0,0,1,.48-1.918,3.421,3.421,0,0,1,.48,1.918Z" transform="translate(-25.521 -15.778)" fill="#111c83"/>
        <path id="Path_175" data-name="Path 175" d="M33.126,49.576c.043.824.116,2.251.135,2.793l1.245.035c-.135-1.307-.344-3.705-.344-3.705l3.763,1.068a12.976,12.976,0,0,0-2.116-1.273c-1-.5-2.073-.893-2.073-.893a30.92,30.92,0,0,1,8.9-2.352,3.275,3.275,0,0,0-.251,1.632s2.487-4.483,6.088-5.461c4.092-1.114,9.225-1.129,13.24,5.148a8.882,8.882,0,0,0-1.632-3.829L93.024,40.1a17.01,17.01,0,0,1,2.932-1.253,11.579,11.579,0,0,0-4.123,4.769,7.782,7.782,0,0,0-.63,2.951s2.545-6.5,8.943-7.345S108.8,41.2,108.8,41.2a8.44,8.44,0,0,0-4.046-3.106,8.175,8.175,0,0,1,2.541.8s5.179-.375,5.694-.375.9,0,1.18.375,1.176,1.458.75,1.458H112.9a1.064,1.064,0,0,0-.847.615c-.143.282-.375.7.658,1.079a13.376,13.376,0,0,1,4,2.827,3.689,3.689,0,0,1,1.176,2.4c0,.472.422.708.611-.236a7.851,7.851,0,0,0-.8-5.175c-1.176-2.305-1.6-3.156-1.5-4.286s1.319-2.445.375-2.445a12.843,12.843,0,0,0-3.527.139A88.913,88.913,0,0,1,100.9,37.481c-4.846.472-16.941,1.694-24.24,1.6s-16.377-.19-18.353-.236-2.777,0-2.777,0a23,23,0,0,1,2.684,2.023s-2.495-1.93-4.522-2.069-5.411-.708-9.457,3.671a8.2,8.2,0,0,1,1.315-1.787,46.657,46.657,0,0,0-8.1,2.727,19.144,19.144,0,0,0-6.069,4.661s.75.093,1.033.139S33.079,48.636,33.126,49.576Z" transform="translate(-22.059 6.42)" fill="#c82230"/>
      </g>
    </g>
    <rect id="Rectangle_10" data-name="Rectangle 10" width="6.888" height="3.56" transform="translate(120.492 86.643)" fill="#fff"/>
  </g>
</svg>
