<svg xmlns="http://www.w3.org/2000/svg" width="26.967" height="26.967" viewBox="0 0 26.967 26.967">
  <path id="dashboard-3-svgrepo-com" d="M31.717,12.514a1.3,1.3,0,1,0-2.61,0ZM16.494,28.607a1.3,1.3,0,1,0,0,2.61ZM29.107,12.514a1.3,1.3,0,0,0,2.61,0ZM16.494,4.25a1.3,1.3,0,1,0,0,2.61Zm13.918,9.569a1.3,1.3,0,0,0,0-2.61Zm-13.918-2.61a1.3,1.3,0,1,0,0,2.61ZM7.36,17.733a1.3,1.3,0,0,0-2.61,0Zm9.134,13.483a1.3,1.3,0,0,0,0-2.61ZM4.75,17.733a1.3,1.3,0,1,0,2.61,0ZM16.494,6.86a1.3,1.3,0,0,0,0-2.61ZM6.055,16.429a1.3,1.3,0,1,0,0,2.61Zm10.439,2.61a1.3,1.3,0,0,0,0-2.61Zm1.3-1.3a1.3,1.3,0,0,0-2.61,0Zm-2.61,12.179a1.3,1.3,0,0,0,2.61,0Zm0-12.179a1.3,1.3,0,1,0,2.61,0Zm2.61-5.219a1.3,1.3,0,1,0-2.61,0Zm0-6.959a1.3,1.3,0,0,0-2.61,0Zm-2.61,6.959a1.3,1.3,0,0,0,2.61,0Zm13.918,0V22.953h2.61V12.514Zm0,10.439a5.654,5.654,0,0,1-5.654,5.654v2.61a8.264,8.264,0,0,0,8.264-8.264Zm-5.654,5.654H16.494v2.61h6.959Zm8.264-16.093A8.264,8.264,0,0,0,23.453,4.25V6.86a5.654,5.654,0,0,1,5.654,5.654ZM23.453,4.25H16.494V6.86h6.959Zm6.959,6.959H16.494v2.61H30.412ZM4.75,17.733v5.219H7.36V17.733Zm0,5.219a8.264,8.264,0,0,0,8.264,8.264v-2.61A5.654,5.654,0,0,1,7.36,22.953Zm8.264,8.264h3.48v-2.61h-3.48ZM7.36,17.733V12.514H4.75v5.219Zm0-5.219A5.654,5.654,0,0,1,13.014,6.86V4.25A8.264,8.264,0,0,0,4.75,12.514ZM13.014,6.86h3.48V4.25h-3.48ZM6.055,19.038H16.494v-2.61H6.055Zm9.134-1.3V29.912H17.8V17.733Zm2.61,0V12.514h-2.61v5.219ZM15.189,5.555v6.959H17.8V5.555Z" transform="translate(-4.75 -4.25)" fill="#51507e"/>
</svg>
