<svg id="页面-1" xmlns="http://www.w3.org/2000/svg" width="40.347" height="40.347" viewBox="0 0 40.347 40.347">
  <g id="Development">
    <g id="group_line">
      <path id="MingCute" d="M40.347,0V40.347H0V0ZM21.171,39.1l-.019,0-.119.06L21,39.168h0l-.025-.006-.119-.06a.036.036,0,0,0-.04.009l-.007.018-.029.718.008.034.019.021.174.124.025.007h0l.02-.007L21.2,39.9l.021-.027h0l.006-.028-.029-.718a.036.036,0,0,0-.027-.03Zm.445-.189-.023,0-.311.155-.017.017h0l0,.019.03.722.008.021h0l.014.012.338.156A.042.042,0,0,0,21.7,40l.007-.024-.057-1.033a.043.043,0,0,0-.032-.036Zm-1.2,0a.038.038,0,0,0-.046.009l-.01.023L20.3,39.979a.038.038,0,0,0,.028.039l.026,0,.338-.156.016-.014h0l.006-.02.03-.722-.005-.021h0l-.016-.015Z" fill="none"/>
      <path id="形状" d="M23.173,8.043A5.045,5.045,0,0,1,19.811,12.8v3.649h5.043A5.043,5.043,0,0,1,29.9,21.492V23.46a5.043,5.043,0,1,1-3.362,0V21.492a1.681,1.681,0,0,0-1.681-1.681H11.406a1.681,1.681,0,0,0-1.681,1.681V23.46a5.043,5.043,0,1,1-3.362,0V21.492a5.043,5.043,0,0,1,5.043-5.043h5.043V12.8a5.044,5.044,0,1,1,6.724-4.756ZM18.13,6.362a1.681,1.681,0,1,0,1.681,1.681A1.681,1.681,0,0,0,18.13,6.362ZM8.043,26.536a1.681,1.681,0,1,0,1.681,1.681A1.681,1.681,0,0,0,8.043,26.536Zm20.173,0A1.681,1.681,0,1,0,29.9,28.217,1.681,1.681,0,0,0,28.217,26.536Z" transform="translate(2.043 2.043)" fill="#51507e" fill-rule="evenodd"/>
    </g>
  </g>
</svg>
