<svg xmlns="http://www.w3.org/2000/svg" width="35.355" height="35.355" viewBox="0 0 35.355 35.355">
  <path id="people-nearby-svgrepo-com" d="M18.928,3.717a2.056,2.056,0,1,0,2.056,2.056A2.056,2.056,0,0,0,18.928,3.717ZM14.406,5.772a4.522,4.522,0,1,1,4.522,4.522A4.522,4.522,0,0,1,14.406,5.772Zm12.727,5.2a3.753,3.753,0,0,1,1.973,7.231L25.529,19.4c-.225.075-.36.12-.46.158-.063.024-.09.037-.1.04a.411.411,0,0,0-.188.4c0,.007.009.036.03.1.034.1.085.234.171.456l2.05,5.331a3.656,3.656,0,0,1-6.587,3.126l-1.52-2.661-1.52,2.661a3.656,3.656,0,0,1-6.587-3.126l2.05-5.331c.085-.222.136-.355.171-.456.022-.064.029-.093.03-.1a.411.411,0,0,0-.188-.4c-.006,0-.033-.016-.1-.04-.1-.038-.235-.083-.46-.158L8.75,18.205a3.753,3.753,0,0,1,1.973-7.231l3.12.669.338.072a23.433,23.433,0,0,0,9.493,0l.338-.072Zm2.073,3.67a1.287,1.287,0,0,0-1.556-1.258l-3.125.67-.35.074a25.9,25.9,0,0,1-10.493,0l-.35-.074-3.125-.67a1.287,1.287,0,0,0-.676,2.479l3.577,1.192.09.03a4.683,4.683,0,0,1,.979.407,2.878,2.878,0,0,1,1.34,2.839,4.684,4.684,0,0,1-.308,1.015l-.034.088-2.05,5.331a1.189,1.189,0,0,0,2.143,1.017l2.591-4.535a1.233,1.233,0,0,1,2.142,0l2.591,4.535a1.189,1.189,0,0,0,2.143-1.017l-2.05-5.331-.034-.088a4.69,4.69,0,0,1-.308-1.015,2.878,2.878,0,0,1,1.34-2.839,4.682,4.682,0,0,1,.979-.407l.09-.03,3.577-1.192A1.287,1.287,0,0,0,29.205,14.645ZM7.772,22.485a1.233,1.233,0,0,1-.548,1.656c-2.5,1.258-3.508,2.672-3.508,3.831,0,1.256,1.191,2.8,4.089,4.108a27.983,27.983,0,0,0,11.122,2.059A27.983,27.983,0,0,0,30.05,32.08c2.9-1.3,4.089-2.852,4.089-4.108,0-1.159-1.007-2.574-3.508-3.831a1.233,1.233,0,1,1,1.108-2.2c2.707,1.361,4.867,3.4,4.867,6.035,0,2.831-2.491,4.983-5.544,6.357a30.409,30.409,0,0,1-12.134,2.276A30.41,30.41,0,0,1,6.794,34.329C3.741,32.956,1.25,30.8,1.25,27.972c0-2.631,2.16-4.674,4.867-6.035A1.233,1.233,0,0,1,7.772,22.485Z" transform="translate(-1.25 -1.25)" fill="#51507e" fill-rule="evenodd"/>
</svg>
